<svg width="21" height="21" viewBox="0 0 21 21" fill="none" xmlns="http://www.w3.org/2000/svg">
<path d="M17.619 2.39538H3.50234C3.34366 2.39318 3.18609 2.42225 3.03865 2.48095C2.8912 2.53965 2.75676 2.62681 2.64301 2.73747C2.52925 2.84813 2.43841 2.98012 2.37567 3.12589C2.31293 3.27166 2.27952 3.42836 2.27734 3.58705V17.8704C2.27952 18.0291 2.31293 18.1858 2.37567 18.3315C2.43841 18.4773 2.52925 18.6093 2.64301 18.72C2.75676 18.8306 2.8912 18.9178 3.03865 18.9765C3.18609 19.0352 3.34366 19.0642 3.50234 19.062H17.619C17.7777 19.0642 17.9353 19.0352 18.0827 18.9765C18.2302 18.9178 18.3646 18.8306 18.4783 18.72C18.5921 18.6093 18.6829 18.4773 18.7457 18.3315C18.8084 18.1858 18.8418 18.0291 18.844 17.8704V3.58705C18.8418 3.42836 18.8084 3.27166 18.7457 3.12589C18.6829 2.98012 18.5921 2.84813 18.4783 2.73747C18.3646 2.62681 18.2302 2.53965 18.0827 2.48095C17.9353 2.42225 17.7777 2.39318 17.619 2.39538ZM7.30234 16.3454H4.80234V8.84538H7.30234V16.3454ZM6.05234 7.79538C5.70756 7.79538 5.3769 7.65842 5.1331 7.41462C4.88931 7.17082 4.75234 6.84016 4.75234 6.49538C4.75234 6.1506 4.88931 5.81994 5.1331 5.57614C5.3769 5.33234 5.70756 5.19538 6.05234 5.19538C6.23542 5.17462 6.42082 5.19276 6.59641 5.24862C6.77199 5.30447 6.93379 5.39679 7.07122 5.51951C7.20866 5.64224 7.31861 5.79261 7.3939 5.96078C7.46919 6.12895 7.50811 6.31113 7.50811 6.49538C7.50811 6.67963 7.46919 6.86181 7.3939 7.02998C7.31861 7.19815 7.20866 7.34852 7.07122 7.47125C6.93379 7.59397 6.77199 7.68629 6.59641 7.74214C6.42082 7.798 6.23542 7.81614 6.05234 7.79538ZM16.319 16.3454H13.819V12.3204C13.819 11.312 13.4607 10.6537 12.5523 10.6537C12.2712 10.6558 11.9975 10.7439 11.768 10.9064C11.5386 11.0688 11.3644 11.2976 11.269 11.562C11.2038 11.7579 11.1755 11.9642 11.1857 12.1704V16.337H8.68568C8.68568 16.337 8.68568 9.52038 8.68568 8.83705H11.1857V9.89538C11.4128 9.5013 11.7431 9.17665 12.141 8.95638C12.539 8.73612 12.9895 8.62859 13.444 8.64538C15.1107 8.64538 16.319 9.72038 16.319 12.0287V16.3454Z" fill="#00DF8F"/>
</svg>
