<svg width="21" height="21" viewBox="0 0 21 21" fill="none" xmlns="http://www.w3.org/2000/svg">
<g clip-path="url(#clip0_575_547)">
<path d="M20.5625 10.7288C20.5625 5.20591 16.0853 0.72876 10.5625 0.72876C5.03965 0.72876 0.5625 5.20591 0.5625 10.7288C0.5625 15.72 4.21936 19.8571 9 20.6072V13.6194H6.46094V10.7288H9V8.52563C9 6.01938 10.4929 4.63501 12.7771 4.63501C13.8712 4.63501 15.0156 4.83032 15.0156 4.83032V7.29126H13.7546C12.5124 7.29126 12.125 8.06209 12.125 8.85293V10.7288H14.8984L14.4551 13.6194H12.125V20.6072C16.9056 19.8571 20.5625 15.72 20.5625 10.7288Z" fill="#00DF8F"/>
</g>
<defs>
<clipPath id="clip0_575_547">
<rect width="20" height="20" fill="white" transform="translate(0.5625 0.72876)"/>
</clipPath>
</defs>
</svg>
