<svg width="21" height="21" viewBox="0 0 21 21" fill="none" xmlns="http://www.w3.org/2000/svg">
<path d="M18.8971 5.56215C18.2708 5.83389 17.6083 6.01353 16.9305 6.09548C17.6456 5.66825 18.1815 4.99613 18.4388 4.20381C17.7668 4.60387 17.0311 4.88573 16.2638 5.03715C15.7509 4.48096 15.0679 4.11073 14.322 3.98452C13.576 3.85832 12.8093 3.98328 12.142 4.3398C11.4747 4.69633 10.9446 5.26425 10.6348 5.95451C10.3251 6.64476 10.2532 7.4183 10.4305 8.15381C9.07166 8.08508 7.7425 7.73127 6.52935 7.11536C5.31619 6.49945 4.24617 5.63522 3.3888 4.57881C3.08808 5.10395 2.93007 5.69866 2.93047 6.30381C2.9294 6.8658 3.06732 7.41933 3.33193 7.91512C3.59655 8.41091 3.97965 8.83357 4.44714 9.14548C3.90378 9.1307 3.37204 8.9849 2.89714 8.72048V8.76215C2.90121 9.54956 3.17713 10.3114 3.67823 10.9188C4.17933 11.5262 4.87485 11.9418 5.64714 12.0955C5.34985 12.186 5.0412 12.2337 4.73047 12.2371C4.51538 12.2346 4.30082 12.2151 4.0888 12.1788C4.30873 12.8562 4.73432 13.4481 5.30636 13.8723C5.87841 14.2965 6.56845 14.5318 7.28047 14.5455C6.07814 15.4915 4.5937 16.0079 3.0638 16.0121C2.78525 16.0131 2.50692 15.9964 2.23047 15.9621C3.79249 16.9707 5.61281 17.5061 7.47214 17.5038C8.75521 17.5171 10.0281 17.2747 11.2164 16.7905C12.4047 16.3064 13.4847 15.5904 14.3931 14.6842C15.3016 13.7781 16.0204 12.7 16.5076 11.5129C16.9948 10.3258 17.2405 9.05359 17.2305 7.77048C17.2305 7.62881 17.2305 7.47881 17.2305 7.32881C17.8844 6.84115 18.4484 6.24333 18.8971 5.56215Z" fill="#00DF8F"/>
</svg>
