<svg width="21" height="21" viewBox="0 0 21 21" fill="none" xmlns="http://www.w3.org/2000/svg">
<path d="M15.0138 5.27872C14.816 5.27872 14.6227 5.33737 14.4582 5.44725C14.2938 5.55713 14.1656 5.71331 14.0899 5.89604C14.0142 6.07876 13.9944 6.27983 14.033 6.47381C14.0716 6.66779 14.1668 6.84597 14.3067 6.98583C14.4465 7.12568 14.6247 7.22092 14.8187 7.2595C15.0127 7.29809 15.2138 7.27829 15.3965 7.2026C15.5792 7.12691 15.7354 6.99874 15.8453 6.83429C15.9552 6.66984 16.0138 6.4765 16.0138 6.27872C16.0138 6.0135 15.9084 5.75915 15.7209 5.57161C15.5334 5.38408 15.279 5.27872 15.0138 5.27872ZM18.8471 7.29539C18.8309 6.60397 18.7014 5.91989 18.4638 5.27039C18.2519 4.71466 17.9221 4.21145 17.4971 3.79539C17.0845 3.36824 16.5801 3.04053 16.0221 2.83705C15.3743 2.59219 14.6895 2.45973 13.9971 2.44539C13.1138 2.39539 12.8305 2.39539 10.5638 2.39539C8.29714 2.39539 8.0138 2.39539 7.13047 2.44539C6.4381 2.45973 5.75325 2.59219 5.10547 2.83705C4.54853 3.04259 4.04458 3.37002 3.63047 3.79539C3.20332 4.20803 2.87562 4.71242 2.67214 5.27039C2.42727 5.91817 2.29481 6.60301 2.28047 7.29539C2.23047 8.17872 2.23047 8.46205 2.23047 10.7287C2.23047 12.9954 2.23047 13.2787 2.28047 14.1621C2.29481 14.8544 2.42727 15.5393 2.67214 16.1871C2.87562 16.745 3.20332 17.2494 3.63047 17.6621C4.04458 18.0874 4.54853 18.4148 5.10547 18.6204C5.75325 18.8653 6.4381 18.9977 7.13047 19.0121C8.0138 19.0621 8.29714 19.0621 10.5638 19.0621C12.8305 19.0621 13.1138 19.0621 13.9971 19.0121C14.6895 18.9977 15.3743 18.8653 16.0221 18.6204C16.5801 18.4169 17.0845 18.0892 17.4971 17.6621C17.924 17.2475 18.2541 16.7439 18.4638 16.1871C18.7014 15.5375 18.8309 14.8535 18.8471 14.1621C18.8471 13.2787 18.8971 12.9954 18.8971 10.7287C18.8971 8.46205 18.8971 8.17872 18.8471 7.29539ZM17.3471 14.0621C17.3411 14.591 17.2453 15.1151 17.0638 15.6121C16.9307 15.9747 16.717 16.3024 16.4388 16.5704C16.1685 16.8458 15.8415 17.0591 15.4805 17.1954C14.9836 17.3768 14.4594 17.4727 13.9305 17.4787C13.0971 17.5204 12.7888 17.5287 10.5971 17.5287C8.40547 17.5287 8.09714 17.5287 7.2638 17.4787C6.71454 17.489 6.16763 17.4044 5.64714 17.2287C5.30195 17.0855 4.98993 16.8727 4.73047 16.6037C4.45388 16.336 4.24284 16.008 4.1138 15.6454C3.91035 15.1413 3.7975 14.6053 3.78047 14.0621C3.78047 13.2287 3.73047 12.9204 3.73047 10.7287C3.73047 8.53705 3.73047 8.22872 3.78047 7.39539C3.7842 6.8546 3.88293 6.31867 4.07214 5.81205C4.21884 5.46031 4.44402 5.14677 4.73047 4.89539C4.98365 4.60886 5.29654 4.3813 5.64714 4.22872C6.15509 4.04542 6.69047 3.94962 7.23047 3.94539C8.0638 3.94539 8.37214 3.89539 10.5638 3.89539C12.7555 3.89539 13.0638 3.89539 13.8971 3.94539C14.4261 3.95145 14.9502 4.04726 15.4471 4.22872C15.8258 4.36926 16.1657 4.59776 16.4388 4.89539C16.7119 5.15137 16.9253 5.46433 17.0638 5.81205C17.249 6.3195 17.3449 6.8552 17.3471 7.39539C17.3888 8.22872 17.3971 8.53705 17.3971 10.7287C17.3971 12.9204 17.3888 13.2287 17.3471 14.0621ZM10.5638 6.45372C9.71864 6.45537 8.89294 6.70749 8.19101 7.17823C7.48909 7.64898 6.94245 8.31722 6.62016 9.09851C6.29788 9.87981 6.21441 10.7391 6.3803 11.5678C6.54619 12.3965 6.954 13.1575 7.5522 13.7545C8.1504 14.3516 8.91214 14.7579 9.74118 14.9222C10.5702 15.0865 11.4294 15.0013 12.21 14.6775C12.9907 14.3537 13.6579 13.8058 14.1272 13.1029C14.5966 12.4001 14.8471 11.5739 14.8471 10.7287C14.8482 10.1663 14.7381 9.60922 14.5232 9.08952C14.3082 8.56981 13.9926 8.09773 13.5945 7.70043C13.1965 7.30313 12.7238 6.98845 12.2036 6.77449C11.6835 6.56054 11.1262 6.45152 10.5638 6.45372ZM10.5638 13.5037C10.015 13.5037 9.47844 13.341 9.02209 13.036C8.56575 12.7311 8.21007 12.2977 8.00004 11.7907C7.79 11.2836 7.73505 10.7256 7.84212 10.1873C7.9492 9.64905 8.21349 9.15459 8.60158 8.7665C8.98967 8.37841 9.48413 8.11411 10.0224 8.00704C10.5607 7.89997 11.1187 7.95492 11.6257 8.16495C12.1328 8.37499 12.5662 8.73067 12.8711 9.18701C13.1761 9.64336 13.3388 10.1799 13.3388 10.7287C13.3388 11.0931 13.267 11.454 13.1276 11.7907C12.9881 12.1273 12.7837 12.4333 12.526 12.6909C12.2683 12.9486 11.9624 13.153 11.6257 13.2925C11.2891 13.4319 10.9282 13.5037 10.5638 13.5037Z" fill="#00DF8F"/>
</svg>
