<svg width="75" height="31" viewBox="0 0 75 31" fill="none" xmlns="http://www.w3.org/2000/svg">
<path d="M15.062 17.0745C16.5511 17.3522 17.7751 18.0967 18.7342 19.3082C19.6933 20.5196 20.1728 21.9077 20.1728 23.4725C20.1728 24.8859 19.8194 26.1352 19.1128 27.2204C18.4313 28.2804 17.4344 29.1133 16.122 29.719C14.8096 30.3248 13.2574 30.6276 11.4655 30.6276H0.0703125V4.20291H10.9733C12.7653 4.20291 14.3048 4.49315 15.592 5.07364C16.9044 5.65413 17.8887 6.46176 18.5449 7.49654C19.2263 8.53131 19.5671 9.7049 19.5671 11.0173C19.5671 12.5569 19.1506 13.844 18.3178 14.8788C17.5101 15.9136 16.4249 16.6455 15.062 17.0745ZM5.3704 15.1059H10.2162C11.4781 15.1059 12.4498 14.8283 13.1312 14.2731C13.8127 13.6926 14.1534 12.8723 14.1534 11.8123C14.1534 10.7523 13.8127 9.93205 13.1312 9.35157C12.4498 8.77108 11.4781 8.48084 10.2162 8.48084H5.3704V15.1059ZM10.7083 26.3118C11.9955 26.3118 12.9924 26.009 13.6991 25.4033C14.431 24.7975 14.797 23.9394 14.797 22.8289C14.797 21.6932 14.4184 20.8098 13.6612 20.1789C12.9041 19.5227 11.8819 19.1946 10.5948 19.1946H5.3704V26.3118H10.7083Z" fill="white"/>
<path d="M24.2454 7.15582C23.3116 7.15582 22.5292 6.86557 21.8983 6.28509C21.2925 5.67936 20.9897 4.93483 20.9897 4.05148C20.9897 3.16813 21.2925 2.43621 21.8983 1.85573C22.5292 1.25001 23.3116 0.947144 24.2454 0.947144C25.1793 0.947144 25.949 1.25001 26.5548 1.85573C27.1857 2.43621 27.5012 3.16813 27.5012 4.05148C27.5012 4.93483 27.1857 5.67936 26.5548 6.28509C25.949 6.86557 25.1793 7.15582 24.2454 7.15582ZM26.8576 9.65443V30.6276H21.5575V9.65443H26.8576Z" fill="white"/>
<path d="M34.5549 2.61289V30.6276H29.2548V2.61289H34.5549Z" fill="white"/>
<path d="M35.5892 20.0653C35.5892 17.9453 36.0056 16.065 36.8385 14.4245C37.6966 12.784 38.8449 11.5221 40.2835 10.6387C41.7474 9.75538 43.3753 9.31371 45.1672 9.31371C46.732 9.31371 48.0949 9.62919 49.2558 10.2602C50.442 10.8911 51.3885 11.6861 52.0952 12.6452V9.65443H57.4331V30.6276H52.0952V27.5611C51.4137 28.5455 50.4673 29.3657 49.2558 30.0219C48.0696 30.6529 46.6941 30.9683 45.1293 30.9683C43.3626 30.9683 41.7474 30.5141 40.2835 29.6055C38.8449 28.6969 37.6966 27.4223 36.8385 25.7818C36.0056 24.1161 35.5892 22.2106 35.5892 20.0653ZM52.0952 20.141C52.0952 18.8539 51.8428 17.756 51.338 16.8474C50.8332 15.9136 50.1518 15.2069 49.2937 14.7274C48.4356 14.2226 47.5144 13.9702 46.5301 13.9702C45.5458 13.9702 44.6372 14.21 43.8043 14.6895C42.9714 15.169 42.29 15.8757 41.76 16.8095C41.2552 17.7181 41.0028 18.8034 41.0028 20.0653C41.0028 21.3272 41.2552 22.4377 41.76 23.3968C42.29 24.3306 42.9714 25.0499 43.8043 25.5547C44.6624 26.0595 45.571 26.3118 46.5301 26.3118C47.5144 26.3118 48.4356 26.0721 49.2937 25.5925C50.1518 25.0878 50.8332 24.3811 51.338 23.4725C51.8428 22.5387 52.0952 21.4282 52.0952 20.141Z" fill="white"/>
<path d="M65.0703 2.61289V30.6276H59.7702V2.61289H65.0703Z" fill="white"/>
<circle cx="71.4004" cy="28.0524" r="2.91602" fill="#02CA82"/>
</svg>
