<svg width="30" height="22" viewBox="0 0 30 22" fill="none" xmlns="http://www.w3.org/2000/svg">
<path d="M0 1.80933C0 0.980928 0.671602 0.309326 1.5 0.309326H15.0001C15.8285 0.309326 16.5001 0.980928 16.5001 1.80933C16.5001 2.63772 15.8285 3.30933 15.0001 3.30933H1.5C0.671602 3.30933 0 2.63767 0 1.80933ZM28.5001 9.30933H1.50008C0.671686 9.30933 8.43704e-05 9.98099 8.43704e-05 10.8093C8.43704e-05 11.6377 0.671686 12.3093 1.50008 12.3093H28.5001C29.3285 12.3093 30.0001 11.6377 30.0001 10.8093C30.0001 9.98099 29.3285 9.30933 28.5001 9.30933ZM28.5001 18.3093H15.0001C14.1717 18.3093 13.5001 18.9809 13.5001 19.8093C13.5001 20.6377 14.1717 21.3093 15.0001 21.3093H28.5001C29.3285 21.3093 30.0001 20.6377 30.0001 19.8093C30.0001 18.9809 29.3285 18.3093 28.5001 18.3093Z" fill="#F0F0F0"/>
</svg>
