<svg width="26" height="27" viewBox="0 0 26 27" fill="none" xmlns="http://www.w3.org/2000/svg">
<g clip-path="url(#clip0_575_478)">
<path d="M13 0.402344C5.85968 0.402344 0 6.26202 0 13.4023C0 19.4955 4.27554 25.0305 9.95312 26.4023V22.1014C9.39056 22.2246 8.87283 22.2282 8.30016 22.0594C7.53189 21.8326 6.90764 21.3208 6.44426 20.5405C6.1489 20.0422 5.62541 19.5018 5.07932 19.5415L4.94542 18.024C6.12628 17.9229 7.14786 18.7435 7.75426 19.7623C8.02364 20.2154 8.33368 20.481 8.7316 20.5984C9.11623 20.7117 9.52922 20.6573 10.0105 20.4873C10.1313 19.5239 10.5726 19.1632 10.9061 18.6554V18.6546C7.51999 18.1496 6.17052 16.3532 5.63493 14.9353C4.92519 13.0526 5.30605 10.7006 6.5611 9.21428C6.58549 9.18532 6.62953 9.10954 6.61247 9.05658C6.03702 7.31831 6.73824 5.88037 6.76402 5.72783C7.42815 5.92421 7.53606 5.53026 9.64883 6.81387L10.014 7.03326C10.1668 7.12431 10.1188 7.07234 10.2715 7.06084C11.1536 6.82121 12.0836 6.6889 12.9998 6.677C13.923 6.6889 14.847 6.82121 15.7656 7.07056L15.8838 7.08246C15.8735 7.08087 15.916 7.07492 15.9872 7.03247C18.6264 5.43385 18.5316 5.95634 19.2393 5.72624C19.2649 5.87898 19.9568 7.34033 19.3875 9.05658C19.3108 9.29303 21.6757 11.4586 20.3649 14.9347C19.8293 16.3532 18.48 18.1496 15.0939 18.6546V18.6554C15.528 19.317 16.0495 19.6689 16.0467 21.0336V26.4023C21.7245 25.0305 25.9998 19.4955 25.9998 13.4023C26 6.26202 20.1403 0.402344 13 0.402344V0.402344Z" fill="#F0F0F0"/>
</g>
<defs>
<clipPath id="clip0_575_478">
<rect width="26" height="26" fill="white" transform="translate(0 0.402344)"/>
</clipPath>
</defs>
</svg>
