<svg width="25" height="25" viewBox="0 0 25 25" fill="none" xmlns="http://www.w3.org/2000/svg">
<path d="M10.984 0.438477H4.98594C2.336 0.438477 0.1875 2.58698 0.1875 5.23691V19.6322C0.1875 22.2822 2.336 24.4307 4.98594 24.4307H19.3813C22.0312 24.4307 24.1797 22.2822 24.1797 19.6322C24.1797 16.9079 24.1797 13.6342 24.1797 13.6342C24.1797 12.972 23.6423 12.4346 22.9801 12.4346C22.3179 12.4346 21.7805 12.972 21.7805 13.6342V19.6322C21.7805 20.9566 20.7056 22.0314 19.3813 22.0314C15.3866 22.0314 8.97944 22.0314 4.98594 22.0314C3.66037 22.0314 2.58672 20.9566 2.58672 19.6322C2.58672 15.6375 2.58672 9.23041 2.58672 5.23691C2.58672 3.91135 3.66037 2.8377 4.98594 2.8377H10.984C11.6462 2.8377 12.1836 2.30027 12.1836 1.63809C12.1836 0.975902 11.6462 0.438477 10.984 0.438477ZM20.0842 2.8377H15.7824C15.1202 2.8377 14.5828 2.30027 14.5828 1.63809C14.5828 0.975902 15.1202 0.438477 15.7824 0.438477H22.9801C23.6423 0.438477 24.1797 0.975902 24.1797 1.63809V8.83574C24.1797 9.49793 23.6423 10.0354 22.9801 10.0354C22.3179 10.0354 21.7805 9.49793 21.7805 8.83574V4.53394L13.0317 13.2827C12.5639 13.7505 11.8033 13.7505 11.3355 13.2827C10.8664 12.8148 10.8664 12.0543 11.3355 11.5864L20.0842 2.8377Z" fill="#F0F0F0"/>
</svg>
